<svg width="130" height="131" xmlns="http://www.w3.org/2000/svg" xmlns:xlink="http://www.w3.org/1999/xlink" xml:space="preserve" overflow="hidden"><g transform="translate(-592 -396)"><path d="M86.6667 119.167 86.6667 98.2047C86.8698 95.6215 86.521 93.0253 85.6429 90.5878 84.7649 88.1497 83.3782 85.9273 81.575 84.0672 98.5833 82.1714 116.458 75.7255 116.458 46.1503 116.457 38.5877 113.548 31.3152 108.333 25.8378 110.803 19.2214 110.628 11.9081 107.846 5.41699 107.846 5.41699 101.454 3.52116 86.6667 13.4337 74.2517 10.0689 61.165 10.0689 48.75 13.4337 33.9625 3.52116 27.5708 5.41699 27.5708 5.41699 24.7887 11.9081 24.6141 19.2214 27.0833 25.8378 21.8299 31.3558 18.9178 38.6941 18.9583 46.3128 18.9583 75.6714 36.8333 82.1172 53.8417 84.2297 52.0596 86.0708 50.6852 88.2673 49.8079 90.675 48.9306 93.0827 48.5702 95.648 48.75 98.2047L48.75 119.167M48.75 102.917C21.6667 111.042 21.6667 89.3755 10.8333 86.6672L48.75 102.917Z" stroke="#FFFFFF" stroke-width="10.8334" stroke-linecap="round" stroke-linejoin="round" fill="none" transform="matrix(1 0 0 1.00769 592 396)"/></g></svg>