<svg width="143" height="143" xmlns="http://www.w3.org/2000/svg" xmlns:xlink="http://www.w3.org/1999/xlink" xml:space="preserve" overflow="hidden"><g transform="translate(-429 -304)"><path d="M494.542 327.833 446.875 357.625 479.599 357.625C479.477 358.075 479.279 358.484 479.18 358.952 478.906 360.394 478.692 361.979 478.692 363.63 478.692 384.907 500.442 382.506 500.442 382.506L500.442 387.928C500.442 390.127 503.325 389.366 503.665 393.829 502.224 393.829 473.536 393.003 473.536 412.355 473.536 431.779 498.859 430.824 498.859 430.824 498.859 430.824 528.104 432.132 528.104 408.108 528.116 393.755 511.358 389.082 511.358 383.32 511.358 377.487 523.984 375.773 523.984 362.117 523.984 356.147 523.575 351.895 520.9 348.874 520.692 348.665 520.556 348.522 520.353 348.385 520.307 348.342 520.249 348.311 520.202 348.269L520.935 348.269 533.271 339.017 533.271 351.667C533.267 351.897 533.291 352.128 533.341 352.353 531.435 353.419 530.265 355.442 530.292 357.625L530.292 363.583C530.245 366.874 532.875 369.579 536.166 369.626 539.456 369.673 542.162 367.043 542.208 363.752 542.209 363.696 542.209 363.639 542.208 363.583L542.208 357.625C542.235 355.442 541.065 353.419 539.159 352.353 539.209 352.128 539.233 351.897 539.229 351.667L539.229 334.536 548.167 327.833 494.542 327.833ZM498.661 346.023C500.376 345.945 502.102 346.361 503.747 347.291 504.98 347.911 506.137 348.796 507.168 349.898 509.295 352.025 511.085 355.113 512.044 358.754 514.308 367.4 511.367 375.713 505.26 377.292 499.218 379.002 492.484 373.362 490.155 364.782 489.124 360.599 489.266 356.554 490.433 353.331 490.445 353.289 490.469 353.256 490.48 353.214 490.5 353.205 490.531 353.177 490.55 353.168 490.885 351.893 491.432 350.75 492.098 349.805 493.323 348.016 494.938 346.804 496.951 346.267 497.517 346.13 498.09 346.048 498.661 346.023ZM500.989 397.459C511.076 396.703 519.664 402.258 520.283 409.807 520.701 417.291 512.94 423.948 502.781 424.633 492.693 425.318 483.98 419.839 483.498 412.355 483.015 404.806 490.83 398.216 500.989 397.459Z" stroke="#FFFFFF" stroke-width="5.95833"/></g></svg>